<?xml version="1.0" encoding="utf-8"?>
<!-- Generator: Adobe Illustrator 28.1.0, SVG Export Plug-In . SVG Version: 6.00 Build 0)  -->
<svg version="1.1" id="Layer_1" xmlns="http://www.w3.org/2000/svg" xmlns:xlink="http://www.w3.org/1999/xlink" x="0px" y="0px"
	 viewBox="0 0 256 256" style="enable-background:new 0 0 256 256;" xml:space="preserve">
<style type="text/css">
	.st0{fill-rule:evenodd;clip-rule:evenodd;}
</style>
<g>
	<path d="M115.21,123.62c1,2.78,1.81,5.44,2.45,7.68h-27.1c1.6-4.48,3.21-9.49,4.7-15c1.7-5.33,3.3-10.66,4.9-15.78
		c1.46-4.52,2.67-9.11,3.62-13.76H104c0.75,2.56,1.5,5.33,2.35,8.32s1.82,6.19,2.87,9.49s2,6.51,3.1,9.82
		S114.25,120.74,115.21,123.62z"/>
	<path d="M210.66,3.19H45.33C20.31,3.18,0.02,23.45,0,48.47v159c-0.02,25.02,20.24,45.31,45.26,45.34h165.4
		c25.01,0.02,45.31-20.24,45.34-45.25v-159c0.03-25.02-20.24-45.33-45.26-45.36c0,0,0,0,0,0L210.66,3.19z M156.75,179.52h-22.3
		c-0.78,0.08-1.5-0.42-1.7-1.18L124,153.01H84.32l-8.1,25c-0.19,0.94-1.05,1.58-2,1.5H54.16c-1.17,0-1.48-0.64-1.17-1.91
		l34.35-98.84c0.32-1.06,0.64-2.23,1.07-3.52c0.43-2.29,0.64-4.61,0.64-6.94c-0.07-0.56,0.31-1.07,0.86-1.17h27.62
		c0.86,0,1.28,0.32,1.39,0.85l38.94,109.83c0.33,1.18,0,1.71-1.06,1.71H156.75z M193,177.93c0,1.16-0.43,1.7-1.39,1.7h-20.88
		c-0.81,0.07-1.53-0.52-1.61-1.34c0,0,0-0.01,0-0.01c-0.02-0.12-0.02-0.23,0-0.35V95.78c0-1.07,0.43-1.5,1.39-1.5h21.17
		c1,0,1.39,0.53,1.39,1.5L193,177.93z M190.77,81.61c-2.54,2.59-6.08,3.95-9.7,3.73c-3.54,0.08-6.96-1.26-9.49-3.73
		c-2.43-2.68-3.71-6.2-3.58-9.81c-0.13-3.57,1.27-7.03,3.85-9.5c2.56-2.42,5.96-3.76,9.49-3.73c3.62-0.19,7.14,1.17,9.7,3.73
		c4.78,5.58,4.69,13.84-0.21,19.31H190.77z"/>
</g>
</svg>
