<?xml version="1.0" encoding="utf-8"?>
<!-- Generator: Adobe Illustrator 28.1.0, SVG Export Plug-In . SVG Version: 6.00 Build 0)  -->
<svg version="1.1" id="Layer_1" xmlns="http://www.w3.org/2000/svg" xmlns:xlink="http://www.w3.org/1999/xlink" x="0px" y="0px"
	 viewBox="0 0 122.9 116.3" style="enable-background:new 0 0 122.9 116.3;" xml:space="preserve">
<style type="text/css">
	.st0{fill-rule:evenodd;clip-rule:evenodd;}
</style>
<g>
	<path class="st0" d="M61.5,33.3c7.1,0,13.6,2.2,19,6c0,0-0.1,0.1-0.1,0.1c-0.7,1-1.5,2-2.4,2.8c-0.9,0.9-1.8,1.6-2.7,2.3
		c-0.3,0.2-0.5,0.4-0.7,0.6c0,0-0.1,0.1-0.1,0.2c-3.8-2.4-8.2-3.7-13-3.7c-4.7,0-9.2,1.3-12.9,3.7c-0.2-0.3-0.4-0.5-0.7-0.7
		c-1-0.8-2-1.6-2.8-2.4c-0.9-0.9-1.7-1.8-2.4-2.8l0,0c0,0-0.1-0.1-0.1-0.1C47.9,35.5,54.5,33.3,61.5,33.3L61.5,33.3z M94.2,62.7
		c0.1,1.2,0.2,2.3,0.2,3.5c0,13.2-7.7,24.6-18.9,29.8c0-0.1-0.1-0.1-0.1-0.2c-0.6-1.1-1-2.3-1.4-3.4c-0.4-1.2-0.6-2.4-0.8-3.6l0,0
		c0-0.2-0.1-0.5-0.2-0.7c0-0.1-0.1-0.1-0.1-0.2c7.8-4.1,13-12.3,13-21.7c0-0.5,0-0.9,0-1.4c0.3,0,0.6-0.1,0.9-0.2
		c1.1-0.5,2.3-0.9,3.5-1.2c1.2-0.3,2.4-0.5,3.5-0.6C94,62.8,94.1,62.8,94.2,62.7L94.2,62.7z M48,96.3c-11.5-5.2-19.4-16.7-19.4-30
		c0-1.3,0.1-2.6,0.2-3.9c0.1,0,0.2,0,0.3,0c1.2,0.1,2.5,0.3,3.6,0.6c1.2,0.3,2.3,0.7,3.5,1.2v0c0.2,0.1,0.4,0.1,0.6,0.2
		c0.1,0,0.1,0,0.2,0c0,0.6-0.1,1.3-0.1,1.9c0,9.6,5.5,17.9,13.6,22c-0.1,0.2-0.2,0.5-0.2,0.8c-0.2,1.2-0.5,2.4-0.8,3.6
		c-0.4,1.1-0.8,2.2-1.3,3.3C48.1,96,48,96.1,48,96.3L48,96.3z"/>
	<path class="st0" d="M114.8,103.9c-10.6,12.6-28.9,16.2-43.7,7.7c-3.9-2.2-7.2-5.2-9.8-8.5c-10.5,13-29.2,16.8-44.1,8.2
		c-2.7-1.6-5.2-3.5-7.3-5.6c1.2,1.1,2.6,2,4,2.9c12.7,7.3,28.9,3,36.2-9.7c4.6-7.9,4.6-17.2,0.9-24.8l4.8-3c1.5,1.6,3.5,2.6,5.9,2.6
		c2.2,0,4.1-0.9,5.6-2.3l0.4,0.3l4.8,2.4c-6.1,12.3-1.7,27.4,10.4,34.3C93.6,114.5,106.7,112.3,114.8,103.9L114.8,103.9z M69.1,68.6
		c0.4-0.9,0.6-1.9,0.6-2.9c0-4-2.9-7.2-6.7-7.8v-5.6c8.6-0.5,16.7-5.1,21.3-13.1c7.3-12.6,2.9-28.7-9.6-35.9C71.9,1.6,69,0.6,66,0.1
		c16.9,2.2,30,16.7,30,34.2c0,4.7-0.9,9.2-2.7,13.4c4.2,0.6,8.4,2,12.3,4.3c13.7,7.9,19.9,23.7,16.2,38.3
		c1.8-10.5-2.9-21.5-12.7-27.2c-12.1-7-27.4-3.2-34.9,8.2l-1.8-0.9l0,0L69.1,68.6L69.1,68.6z M54.2,68.2l-4.8,2.9
		c-2.2-3.4-5.2-6.3-9-8.5c-12.7-7.3-28.9-3-36.2,9.7C1,78,0.1,84.3,1.1,90.2c-2.2-8.5-1.2-17.8,3.5-26c5.5-9.5,14.8-15.4,24.9-16.9
		c-1.6-4-2.5-8.4-2.5-13C27,16.5,40.4,1.9,57.6,0C50,1.2,42.9,5.7,38.8,12.9c-7.3,12.6-3,28.7,9.6,35.9c3.6,2.1,7.5,3.2,11.4,3.5V58
		c-3.4,0.9-5.9,4-5.9,7.7C53.8,66.6,54,67.4,54.2,68.2L54.2,68.2z"/>
</g>
</svg>
