<?xml version="1.0" encoding="utf-8"?>
<!-- Generator: Adobe Illustrator 28.1.0, SVG Export Plug-In . SVG Version: 6.00 Build 0)  -->
<svg version="1.1" id="Layer_1" xmlns="http://www.w3.org/2000/svg" xmlns:xlink="http://www.w3.org/1999/xlink" x="0px" y="0px"
	 viewBox="0 0 49.1 46.5" style="enable-background:new 0 0 49.1 46.5;" xml:space="preserve">
<style type="text/css">
	.st0{fill:#FFFFFF;filter:url(#Adobe_OpacityMaskFilter);}
	.st1{mask:url(#a_00000181790048296592279090000006644520687723890603_);}
	.st2{clip-path:url(#SVGID_00000183938330351859831260000009743128696305962407_);}
	.st3{clip-path:url(#SVGID_00000066505715113500810800000013928059436407680936_);}
	.st4{clip-path:url(#SVGID_00000023267744015918023440000013626789380757638027_);fill:none;stroke:#000000;stroke-width:3.5;}
</style>
<defs>
	<filter id="Adobe_OpacityMaskFilter" filterUnits="userSpaceOnUse" x="0" y="0" width="49.1" height="46.5">
		<feColorMatrix  type="matrix" values="1 0 0 0 0  0 1 0 0 0  0 0 1 0 0  0 0 0 1 0"/>
	</filter>
</defs>
<mask maskUnits="userSpaceOnUse" x="0" y="0" width="49.1" height="46.5" id="a_00000181790048296592279090000006644520687723890603_">
	<path class="st0" d="M-2.5-1h54v54h-54V-1z"/>
	<path d="M26.5,3v-4h-4v4 M24,20v4h1v-4"/>
	<circle cx="24.5" cy="11" r="10.5"/>
	<g transform="rotate(120)">
		<path d="M12.3-57.2v-4h-4l0,4 M9.8-40.2l0,4h1l0-4"/>
		<circle cx="10.3" cy="-49.2" r="10.5"/>
	</g>
	<g transform="rotate(240)">
		<path d="M-32.8-14.8v-4h-4v4 M-35.3,2.2v4h1l0-4"/>
		<circle cx="-34.8" cy="-6.8" r="10.5"/>
	</g>
	<circle cx="24.5" cy="26" r="3"/>
</mask>
<g class="st1">
	<circle cx="24.5" cy="15" r="15"/>
	<circle cx="34.1" cy="31.5" r="15"/>
	<circle cx="15" cy="31.5" r="15"/>
</g>
<g>
	<defs>
		<circle id="SVGID_1_" cx="24.5" cy="11" r="9.5"/>
	</defs>
	<defs>
		<circle id="SVGID_00000008151511045125953940000008839012655554778269_" cx="37.5" cy="33.5" r="9.5"/>
	</defs>
	<defs>
		<circle id="SVGID_00000149355169094630599960000008771192619961777563_" cx="11.5" cy="33.5" r="9.5"/>
	</defs>
	<clipPath id="SVGID_00000009583259441855284690000006625199242951739049_">
		<use xlink:href="#SVGID_1_"  style="overflow:visible;"/>
	</clipPath>
	
		<clipPath id="SVGID_00000070087176129877513600000006408664869864529586_" style="clip-path:url(#SVGID_00000009583259441855284690000006625199242951739049_);">
		<use xlink:href="#SVGID_00000008151511045125953940000008839012655554778269_"  style="overflow:visible;"/>
	</clipPath>
	
		<clipPath id="SVGID_00000114075361734963844360000012497626317704107187_" style="clip-path:url(#SVGID_00000070087176129877513600000006408664869864529586_);">
		<use xlink:href="#SVGID_00000149355169094630599960000008771192619961777563_"  style="overflow:visible;"/>
	</clipPath>
	
		<circle style="clip-path:url(#SVGID_00000114075361734963844360000012497626317704107187_);fill:none;stroke:#000000;stroke-width:3.5;" cx="24.5" cy="26" r="11.8"/>
</g>
</svg>
