<?xml version="1.0" encoding="utf-8"?>
<!-- Generator: Adobe Illustrator 28.1.0, SVG Export Plug-In . SVG Version: 6.00 Build 0)  -->
<svg version="1.1" id="Layer_1" xmlns="http://www.w3.org/2000/svg" xmlns:xlink="http://www.w3.org/1999/xlink" x="0px" y="0px"
	 viewBox="0 0 256 256" style="enable-background:new 0 0 256 256;" xml:space="preserve">
<style type="text/css">
	.st0{fill-rule:evenodd;clip-rule:evenodd;}
</style>
<g>
	<path d="M128,0C57.32,0,0,57.31,0,128c0,56.55,36.68,104.53,87.53,121.46c6.4,1.18,8.75-2.78,8.75-6.16
		c0-3.05-0.12-13.14-0.17-23.83c-35.61,7.74-43.12-15.1-43.12-15.1c-5.82-14.8-14.21-18.73-14.21-18.73
		c-11.61-7.94,0.88-7.78,0.88-7.78c12.85,0.9,19.62,13.19,19.62,13.19c11.42,19.57,29.94,13.91,37.25,10.64
		c1.15-8.27,4.47-13.92,8.13-17.12c-28.43-3.24-58.32-14.21-58.32-63.26c0-13.97,5-25.39,13.19-34.36
		c-1.33-3.22-5.71-16.24,1.24-33.87c0,0,10.75-3.44,35.21,13.12c10.21-2.84,21.16-4.26,32.04-4.31c10.88,0.05,21.84,1.47,32.07,4.31
		c24.43-16.56,35.17-13.12,35.17-13.12c6.97,17.63,2.58,30.65,1.25,33.87c8.21,8.96,13.17,20.38,13.17,34.36
		c0,49.16-29.94,59.99-58.45,63.16c4.59,3.97,8.68,11.76,8.68,23.7c0,17.13-0.15,30.91-0.15,35.13c0,3.41,2.3,7.4,8.79,6.14
		C219.37,232.5,256,184.54,256,128C256,57.31,198.69,0,128,0"/>
	<path d="M47.94,182.34c-0.28,0.64-1.28,0.83-2.19,0.39c-0.93-0.42-1.45-1.28-1.15-1.92c0.28-0.65,1.28-0.84,2.2-0.4
		C47.73,180.83,48.26,181.7,47.94,182.34 M54.24,187.96c-0.61,0.57-1.8,0.3-2.61-0.59c-0.84-0.89-0.99-2.09-0.37-2.66
		c0.63-0.57,1.79-0.3,2.63,0.59C54.71,186.2,54.87,187.39,54.24,187.96 M58.56,195.15c-0.79,0.55-2.07,0.03-2.86-1.1
		c-0.78-1.14-0.78-2.5,0.02-3.05c0.8-0.55,2.06-0.06,2.86,1.07C59.36,193.22,59.36,194.59,58.56,195.15 M65.86,203.47
		c-0.7,0.77-2.2,0.57-3.29-0.49c-1.12-1.03-1.43-2.5-0.73-3.27c0.71-0.78,2.21-0.56,3.31,0.49
		C66.27,201.23,66.61,202.71,65.86,203.47 M75.3,206.28c-0.31,1-1.75,1.46-3.2,1.03c-1.45-0.44-2.4-1.61-2.1-2.63
		c0.3-1.01,1.75-1.48,3.21-1.03C74.65,204.1,75.6,205.26,75.3,206.28 M86.05,207.47c0.04,1.06-1.19,1.93-2.72,1.95
		c-1.53,0.03-2.77-0.82-2.78-1.86c0-1.07,1.2-1.93,2.73-1.96C84.8,205.58,86.05,206.42,86.05,207.47 M96.6,207.07
		c0.18,1.03-0.88,2.09-2.39,2.37c-1.49,0.27-2.86-0.36-3.05-1.39c-0.18-1.06,0.89-2.11,2.38-2.39
		C95.05,205.4,96.41,206.02,96.6,207.07"/>
</g>
</svg>
