<?xml version="1.0" encoding="utf-8"?>
<!-- Generator: Adobe Illustrator 28.1.0, SVG Export Plug-In . SVG Version: 6.00 Build 0)  -->
<svg version="1.1" id="Layer_1" xmlns="http://www.w3.org/2000/svg" xmlns:xlink="http://www.w3.org/1999/xlink" x="0px" y="0px"
	 viewBox="0 0 256 256" style="enable-background:new 0 0 256 256;" xml:space="preserve">
<style type="text/css">
	.st0{fill-rule:evenodd;clip-rule:evenodd;}
</style>
<path d="M19.12,0c-2.35,0-4.11,1.92-3.9,4.26l19.84,222.49c0.21,2.34,2.23,4.78,4.5,5.41l84.17,23.37c2.27,0.63,5.98,0.63,8.25,0
	l84.43-23.41c2.27-0.63,4.3-3.06,4.5-5.4L240.78,4.26c0.21-2.34-1.54-4.26-3.9-4.26H19.12z M198.54,51.03
	c-0.19,2.09-2.22,24.53-2.25,24.53c-0.03,0-104.09,0-104.09,0c-2.35,0-4.11,1.92-3.9,4.26l1.83,20.5c0.21,2.34,2.31,4.26,4.66,4.26
	h87.06c2.35,0,5.99,0,8.09,0c2.1,0,3.66,1.71,3.47,3.8c-0.19,2.09-7.1,79.47-7.21,80.79c-0.12,1.32-2.07,2.91-4.33,3.53
	l-49.74,13.79c-2.27,0.63-4.15,1.15-4.19,1.16c-0.04,0.01-1.92-0.5-4.19-1.13L73.96,192.7c-2.27-0.63-4.29-3.06-4.5-5.4l-3.21-35.97
	c-0.21-2.34,1.55-4.26,3.9-4.26h19.88c2.35,0,4.45,1.92,4.66,4.26l1.26,14.08c0.21,2.34,2.24,4.76,4.51,5.38l23.29,6.29
	c2.27,0.61,4.14,1.12,4.15,1.12c0.01,0,1.88-0.5,4.15-1.12l23.33-6.3c2.27-0.61,4.3-3.03,4.51-5.38l2.53-28.21
	c0.21-2.34-1.54-4.26-3.9-4.26H68.88c-2.35,0-4.45-1.92-4.66-4.26c0,0-6.74-75.53-6.93-77.63c-0.19-2.09,1.59-3.8,3.94-3.8H194.6
	C196.95,47.23,198.72,48.94,198.54,51.03z"/>
</svg>
