<?xml version="1.0" encoding="utf-8"?>
<!-- Generator: Adobe Illustrator 28.1.0, SVG Export Plug-In . SVG Version: 6.00 Build 0)  -->
<svg version="1.1" id="Layer_1" xmlns="http://www.w3.org/2000/svg" xmlns:xlink="http://www.w3.org/1999/xlink" x="0px" y="0px"
	 viewBox="0 0 256 256" style="enable-background:new 0 0 256 256;" xml:space="preserve">
<style type="text/css">
	.st0{fill-rule:evenodd;clip-rule:evenodd;}
</style>
<path d="M0,0v256h256V0H0z M134.93,219.25c-4.01,7.55-11.03,13.05-19.32,15.13c-11.52,3.04-23.77,1.54-34.22-4.2
	c-6.14-3.95-11.04-9.56-14.11-16.18c6.49-4,12.97-7.98,19.45-11.93c0.53,0.68,0.99,1.41,1.36,2.19c1.89,3.93,4.99,7.16,8.84,9.21
	c6.04,2.67,13.13,0.55,16.72-5c1.87-9.52,2.36-19.27,1.46-28.93c0-20.69,0.1-41.23,0.1-61.91h24c0,22,0.11,44,0,65.92
	C140.73,195.62,139.26,207.88,134.93,219.25z M234.26,212.48c-8.33,28.48-54.72,29.4-73.28,10.58c-3.56-3.43-6.5-7.43-8.71-11.85
	c9.86-5.67,9.86-5.67,19.46-11.26c3.78,7.29,10.64,12.51,18.68,14.2c11.76,1.44,23.56-2.6,20.93-15.09
	c-2.73-10.24-24.06-12.68-38.6-23.55c-14.81-11.1-17.81-32.11-6.7-46.91c0,0,0,0,0-0.01l0.61-0.8c4.78-5.39,11.13-9.14,18.16-10.71
	l7.55-1c11.22-1.26,22.39,2.81,30.17,11c2.35,2.52,4.41,5.3,6.15,8.27c-7.71,4.91-7.69,4.87-18.74,12
	c-1.98-4.52-5.75-8.02-10.41-9.67c-6.26-2.61-13.45,0.34-16.06,6.6c0,0.01,0,0.01-0.01,0.02c-0.05,0.11-0.1,0.23-0.14,0.35
	c-0.58,2.49-0.42,5.09,0.46,7.49c2.61,5.94,11.34,8.52,19.18,12.12c22.53,9.15,30.18,19,32,30.64c1.26,5.85,1,11.92-0.74,17.64
	L234.26,212.48z"/>
</svg>
