<?xml version="1.0" encoding="utf-8"?>
<!-- Generator: Adobe Illustrator 28.1.0, SVG Export Plug-In . SVG Version: 6.00 Build 0)  -->
<svg version="1.1" id="Layer_1" xmlns="http://www.w3.org/2000/svg" xmlns:xlink="http://www.w3.org/1999/xlink" x="0px" y="0px"
	 viewBox="0 0 256 256" style="enable-background:new 0 0 256 256;" xml:space="preserve">
<style type="text/css">
	.st0{fill-rule:evenodd;clip-rule:evenodd;}
</style>
<g>
	<path d="M112.53,95.89c1.7,2.87,2.56,6.16,2.46,9.5c0,4.69-1.07,8.32-3.31,11c-2.31,2.69-5.35,4.66-8.75,5.66
		c-3.96,1.29-8.1,1.95-12.26,1.95H85c-1.28,0-2.66-0.11-4.16-0.22V87.89c1.45-0.16,2.92-0.19,4.38-0.1c2-0.11,4.48-0.11,7.25-0.11
		c4.3-0.16,8.58,0.56,12.59,2.13C108.13,90.99,110.75,93.12,112.53,95.89z"/>
	<path d="M210.67,3.2H45.33C20.31,3.18,0.02,23.45,0,48.47c0,0.02,0,0.04,0,0.06v158.94c-0.02,25.02,20.25,45.31,45.27,45.33
		c0.02,0,0.04,0,0.06,0h165.34c25.02,0.02,45.31-20.25,45.33-45.27c0-0.02,0-0.04,0-0.06V48.53c0.02-25.02-20.25-45.31-45.27-45.33
		C210.71,3.2,210.69,3.2,210.67,3.2z M131.84,127.47c-4.29,5.96-10.27,10.49-17.17,13c-7.26,2.67-15.26,3.63-24,3.63
		c-2.56,0-4.27,0-5.34-0.11s-2.56-0.11-4.58-0.11v34.24c0.09,0.73-0.43,1.4-1.16,1.5c-0.01,0-0.01,0-0.02,0H58.88
		c-0.85,0-1.28-0.43-1.28-1.39V68.48c0-0.75,0.32-1.17,1.07-1.17c1.81,0,3.52,0,6-0.11s5.23-0.11,8.11-0.21s6-0.11,9.28-0.22
		s6.5-0.1,9.7-0.1c8.75,0,16,1.06,22,3.3c5.34,1.83,10.2,4.82,14.24,8.75c3.44,3.45,6.09,7.6,7.79,12.16
		c1.61,4.45,2.44,9.14,2.45,13.87C138.24,113.92,136.11,121.5,131.84,127.47L131.84,127.47z M207.47,169
		c-2.98,4.26-7.13,7.56-11.95,9.49c-5.23,2.24-11.63,3.42-19.31,3.42c-4.87,0.02-9.72-0.45-14.5-1.39
		c-3.76-0.65-7.42-1.79-10.88-3.41c-0.76-0.37-1.22-1.16-1.18-2v-18.63c-0.03-0.38,0.13-0.76,0.43-1c0.32-0.2,0.73-0.15,1,0.11
		c4.11,2.42,8.57,4.18,13.23,5.22c4.11,1.07,8.34,1.61,12.58,1.6c4.06,0,6.94-0.53,8.86-1.49c1.74-0.82,2.86-2.56,2.88-4.48
		c0-1.49-0.86-2.88-2.56-4.27s-5.23-3-10.46-5c-5.36-1.89-10.45-4.47-15.14-7.68c-3.34-2.38-6.11-5.48-8.11-9.07
		c-1.71-3.37-2.55-7.11-2.45-10.88c0.02-4.55,1.27-9.01,3.62-12.9c2.71-4.28,6.6-7.69,11.2-9.82c5-2.56,11.31-3.73,18.88-3.73
		c4.43,0.01,8.85,0.35,13.23,1c3.14,0.43,6.22,1.25,9.16,2.44c0.48,0.18,0.86,0.54,1.07,1c0.12,0.42,0.19,0.85,0.21,1.28v17.39
		c0,0.42-0.19,0.82-0.53,1.07c-0.62,0.22-1.3,0.22-1.92,0c-3.22-1.7-6.67-2.92-10.24-3.63c-3.92-0.89-7.93-1.35-11.95-1.39
		c-2.16-0.07-4.32,0.18-6.4,0.75c-1.33,0.28-2.5,1.04-3.3,2.13c-0.54,0.86-0.84,1.86-0.86,2.88c0.05,1.02,0.43,1.99,1.07,2.78
		c1.01,1.18,2.25,2.16,3.63,2.88c2.45,1.28,5,2.45,7.57,3.52c5.76,1.94,11.28,4.55,16.43,7.78c3.5,2.2,6.4,5.25,8.42,8.86
		c1.72,3.41,2.57,7.19,2.46,11C211.73,159.87,210.27,164.81,207.47,169L207.47,169z"/>
</g>
</svg>
