<?xml version="1.0" encoding="utf-8"?>
<!-- Generator: Adobe Illustrator 28.1.0, SVG Export Plug-In . SVG Version: 6.00 Build 0)  -->
<svg version="1.1" id="Layer_1" xmlns="http://www.w3.org/2000/svg" xmlns:xlink="http://www.w3.org/1999/xlink" x="0px" y="0px"
	 viewBox="0 0 98.28 100.12" style="enable-background:new 0 0 98.28 100.12;" xml:space="preserve">
<path d="M29.4,0c-0.26,1.62-0.26,1.62-0.3,4.62c-0.59,0.59,22.1,4.48,31.3,23c3.35,3.35-4.47,3.82-1.12,7.16
	c-3.3,3.19-9.68,9.12-12.6,11.94c-2.96,2.85-13.04,12.55-16,15.4c-3.56,3.43-7.13,6.86-10.69,10.3
	C13.81,78.37,7.64,84.31,1.47,90.25c-0.29,0.28-0.58,0.56-0.86,0.83c-0.8,0.77-0.8,2.06-0.07,2.79c1.16,1.16,1.69,1.69,2.86,2.86
	c1.16,1.16,1.69,1.69,2.86,2.86c0.73,0.73,2.02,0.72,2.79-0.07c0.28-0.29,0.56-0.58,0.83-0.86c5.94-6.17,11.88-12.34,17.82-18.51
	c3.38-3.51,6.77-7.03,10.15-10.54c2.8-2.91,12.74-13.23,15.55-16.15c2.81-2.92,9.06-9.15,12.26-12.45c0.96,0.96,0.54,0.28,1.5,1.25
	c2.39-0.59,3.06-3.35,5.62-2.38c4.31,1.63,9.5,7.38,14,13.38c0.66,0.25,11.19,19.03,11.5,18.62c-5.29-32-21.8-42.27-21.8-42.27
	c0,0,0,0,0,0c0.87-0.9,1.75-1.79,2.62-2.69c0.4-0.41,0.43-1.07,0.04-1.46c-1.49-1.48-2.97-2.97-4.46-4.45
	c-0.39-0.39-1.05-0.37-1.46,0.04c-0.9,0.87-1.79,1.75-2.69,2.62c0,0,0,0,0,0C63.23,12.42,29.4,0,29.4,0z"/>
</svg>
