<?xml version="1.0" encoding="utf-8"?>
<!-- Generator: Adobe Illustrator 28.1.0, SVG Export Plug-In . SVG Version: 6.00 Build 0)  -->
<svg version="1.1" id="Layer_1" xmlns="http://www.w3.org/2000/svg" xmlns:xlink="http://www.w3.org/1999/xlink" x="0px" y="0px"
	 viewBox="0 0 256 256" style="enable-background:new 0 0 256 256;" xml:space="preserve">
<style type="text/css">
	.st0{fill-rule:evenodd;clip-rule:evenodd;}
</style>
<path class="st0" d="M128.02,64.18c-28.58,0-46.41,14.18-53.54,42.59c10.7-14.18,23.2-19.51,37.47-15.99
	c8.14,2.01,13.97,7.89,20.39,14.39c10.49,10.57,22.66,22.87,49.18,22.87c28.53,0,46.41-14.18,53.54-42.59
	c-10.7,14.18-23.2,19.51-37.47,15.95c-8.14-2.01-13.97-7.89-20.43-14.39c-10.49-10.62-22.66-22.87-49.18-22.87L128.02,64.18z
	 M74.48,128.04c-28.53,0-46.41,14.18-53.54,42.59c10.7-14.18,23.2-19.51,37.47-15.99c8.14,2.01,13.97,7.89,20.39,14.39
	c10.49,10.57,22.66,22.83,49.18,22.83c28.53,0,46.41-14.18,53.54-42.59c-10.7,14.18-23.2,19.51-37.47,15.99
	c-8.14-2.01-13.97-7.89-20.39-14.39C113.17,140.29,101,128,74.48,128L74.48,128.04z"/>
</svg>
